<?xml version="1.0" standalone="no"?>
<!DOCTYPE svg PUBLIC "-//W3C//DTD SVG 20010904//EN"
 "http://www.w3.org/TR/2001/REC-SVG-20010904/DTD/svg10.dtd">
<svg version="1.0" xmlns="http://www.w3.org/2000/svg"
 width="512.000000pt" height="512.000000pt" viewBox="0 0 512.000000 512.000000"
 preserveAspectRatio="xMidYMid meet">

<g transform="translate(0.000000,512.000000) scale(0.100000,-0.100000)"
fill="#000000" stroke="none">
<path d="M2330 5110 c-424 -41 -844 -190 -1188 -421 -281 -189 -532 -441 -718
-721 -85 -128 -216 -386 -268 -529 -404 -1107 4 -2351 988 -3009 606 -405
1360 -529 2077 -342 411 108 803 330 1118 637 675 656 935 1610 686 2518 -188
687 -676 1282 -1315 1602 -260 130 -507 207 -805 251 -125 18 -449 26 -575 14z
m466 -121 c559 -55 1091 -306 1489 -704 457 -458 715 -1080 715 -1725 0 -645
-258 -1267 -715 -1725 -457 -456 -1081 -715 -1724 -715 -934 0 -1787 534
-2197 1376 -259 532 -314 1153 -152 1728 247 885 994 1566 1898 1735 218 40
471 51 686 30z"/>
<path d="M1775 3470 c-231 -40 -421 -213 -479 -437 -24 -90 -23 -856 0 -947
59 -227 252 -399 490 -436 46 -7 319 -10 819 -8 l750 3 81 27 c189 65 339 224
388 414 24 91 24 857 0 948 -49 190 -199 349 -388 414 l-81 27 -765 2 c-421 0
-787 -3 -815 -7z m1583 -125 c91 -22 159 -60 228 -129 71 -72 118 -161 133
-256 14 -85 14 -715 0 -800 -22 -137 -126 -283 -247 -344 -109 -55 -114 -56
-912 -56 -798 0 -803 1 -912 56 -121 61 -225 207 -247 344 -14 85 -14 715 0
800 29 183 175 340 357 384 87 22 1510 22 1600 1z"/>
<path d="M2285 2945 l-25 -24 0 -355 0 -354 31 -26 c17 -14 40 -26 52 -26 18
0 510 261 604 320 39 25 55 89 33 130 -5 10 -144 95 -309 189 -322 184 -341
192 -386 146z m325 -246 c127 -73 230 -134 230 -138 0 -5 -172 -102 -392 -221
l-78 -42 0 266 c0 146 2 266 5 266 3 0 109 -59 235 -131z"/>
</g>
</svg>
