<?xml version="1.0" standalone="no"?>
<!DOCTYPE svg PUBLIC "-//W3C//DTD SVG 20010904//EN"
 "http://www.w3.org/TR/2001/REC-SVG-20010904/DTD/svg10.dtd">
<svg version="1.0" xmlns="http://www.w3.org/2000/svg"
 width="512.000000pt" height="512.000000pt" viewBox="0 0 512.000000 512.000000"
 preserveAspectRatio="xMidYMid meet">

<g transform="translate(0.000000,512.000000) scale(0.100000,-0.100000)"
fill="#000000" stroke="none">
<path d="M934 3833 c-46 -9 -58 -38 -62 -143 l-4 -99 -274 -3 c-269 -3 -274
-3 -296 -26 -23 -22 -23 -27 -26 -296 l-3 -273 -71 -7 c-92 -8 -144 -37 -175
-95 -23 -43 -23 -50 -23 -331 0 -281 0 -288 23 -331 31 -58 83 -87 175 -95
l71 -7 3 -273 c3 -269 3 -274 26 -296 22 -23 27 -23 296 -26 l274 -3 4 -100
c6 -155 -22 -144 378 -144 l329 0 23 23 23 23 3 499 3 500 929 0 930 0 0 -192
c0 -106 5 -209 10 -229 21 -75 119 -75 140 0 6 23 10 350 10 904 l0 867 220 0
220 0 0 -1120 0 -1120 -219 0 -219 0 -4 95 c-3 81 -7 99 -25 117 -29 28 -78
28 -106 -1 -21 -20 -22 -30 -22 -171 0 -142 1 -151 23 -172 l23 -23 329 0
c400 0 372 -11 378 144 l4 100 274 3 c269 3 274 3 296 26 23 22 23 27 26 296
l3 273 71 7 c92 8 144 37 175 95 23 43 23 50 23 331 0 281 0 288 -23 331 -31
59 -82 87 -175 95 l-72 7 -1 241 c0 280 -3 304 -29 331 -19 18 -34 20 -155 20
-125 0 -136 -2 -156 -22 -29 -28 -29 -77 -1 -105 17 -17 37 -22 101 -26 l81
-5 0 -868 0 -869 -220 0 -220 0 0 873 0 874 25 11 c45 21 46 103 1 123 -22 11
-24 17 -28 115 -6 160 23 149 -378 149 l-329 0 -23 -23 -23 -23 -3 -499 -3
-500 -929 0 -930 0 -1 198 c0 220 -8 261 -51 276 -43 15 -81 -3 -95 -44 -9
-26 -12 -259 -12 -907 l-1 -873 -220 0 -220 0 0 50 c0 28 0 509 0 1070 0 561
0 1043 0 1070 l0 50 220 0 220 0 1 -72 c1 -128 36 -177 107 -152 42 15 54 66
50 211 -5 182 25 168 -361 169 -171 1 -322 0 -333 -3z m-64 -1273 l0 -870
-220 0 -220 0 0 290 c0 160 0 421 0 580 0 160 0 421 0 580 l0 290 220 0 220 0
0 -870z m-600 0 l0 -271 -57 3 -58 3 -3 255 c-1 140 0 260 3 267 3 8 24 13 60
13 l55 0 0 -270z m4695 0 l0 -265 -57 -3 -58 -3 0 271 0 271 58 -3 57 -3 0
-265z m-1475 0 l0 -70 -930 0 -930 0 0 70 0 70 930 0 930 0 0 -70z"/>
</g>
</svg>
