<?xml version="1.0" standalone="no"?>
<!DOCTYPE svg PUBLIC "-//W3C//DTD SVG 20010904//EN"
 "http://www.w3.org/TR/2001/REC-SVG-20010904/DTD/svg10.dtd">
<svg version="1.0" xmlns="http://www.w3.org/2000/svg"
 width="512.000000pt" height="512.000000pt" viewBox="0 0 512.000000 512.000000"
 preserveAspectRatio="xMidYMid meet">

<g transform="translate(0.000000,512.000000) scale(0.100000,-0.100000)"
fill="#000000" stroke="none">
<path d="M513 4195 c-61 -18 -138 -70 -174 -117 -100 -126 -106 -321 -14 -443
l35 -45 0 -149 c0 -120 4 -161 20 -212 32 -106 116 -220 199 -271 l34 -21 -45
-23 c-85 -43 -120 -95 -281 -422 l-152 -307 0 -465 c0 -498 -2 -475 49 -591 6
-14 -2 -17 -60 -21 -60 -4 -70 -7 -95 -36 -16 -18 -29 -44 -29 -58 0 -33 25
-81 49 -94 27 -14 4995 -14 5022 0 24 13 49 61 49 94 0 14 -13 40 -29 58 l-29
33 -232 5 -232 5 48 35 c103 76 228 249 280 386 83 221 71 491 -31 695 -119
237 -334 420 -590 502 -127 41 -191 51 -334 51 l-133 1 38 30 c129 101 217
222 246 340 7 28 21 62 31 78 69 101 97 283 62 402 -25 86 -57 145 -115 208
-53 58 -87 73 -134 61 -20 -5 -104 -96 -296 -318 l-268 -311 -235 -169 c-225
-161 -257 -191 -257 -236 0 -71 81 -122 143 -88 12 6 108 74 215 150 106 77
198 138 205 135 7 -3 52 -40 101 -83 l89 -78 -35 -30 c-19 -17 -137 -119 -263
-226 -385 -328 -524 -471 -668 -690 -61 -93 -107 -180 -233 -445 -89 -189
-293 -345 -506 -389 -104 -22 -366 -22 -479 0 -46 8 -87 19 -91 23 -5 4 87
119 203 256 117 138 248 295 293 350 111 138 340 397 420 475 74 72 88 108 62
158 -20 39 -44 52 -92 52 -33 0 -46 -9 -126 -87 -74 -73 -223 -237 -350 -387
l-24 -29 -110 142 c-74 97 -108 150 -106 164 1 12 5 70 8 128 7 119 -5 178
-58 283 -43 86 -171 211 -266 260 l-73 37 53 47 c67 61 123 149 151 237 18 59
21 93 21 215 -1 128 -4 153 -26 216 -61 174 -186 290 -366 340 -51 14 -65 23
-95 64 -86 115 -255 169 -394 125z m187 -206 c41 -26 54 -41 79 -96 23 -50 45
-63 127 -73 35 -4 84 -18 108 -30 52 -25 118 -86 141 -129 l16 -31 -84 0
c-144 0 -269 -48 -342 -132 -32 -38 -32 -38 -110 -38 l-78 0 7 104 7 105 -41
38 c-54 50 -70 82 -70 141 0 123 137 203 240 141z m3314 -379 c19 -49 20 -151
2 -203 -8 -21 -26 -55 -41 -76 -14 -22 -33 -67 -41 -102 -16 -68 -55 -147 -88
-178 l-21 -19 -102 86 c-56 48 -101 92 -100 98 2 13 359 432 368 433 4 1 14
-17 23 -39z m-2822 -245 c-7 -117 -71 -214 -178 -266 -55 -27 -76 -32 -138
-32 -115 0 -222 59 -274 152 l-23 41 106 0 c58 0 115 5 125 10 11 6 35 31 55
57 64 84 111 103 240 100 l90 -2 -3 -60z m-70 -615 c167 -91 238 -186 246
-329 3 -54 -1 -95 -12 -133 -29 -101 -30 -97 134 -310 82 -106 148 -198 145
-205 -7 -21 -446 -533 -456 -533 -21 0 -136 86 -200 150 -74 74 -149 180 -203
287 l-36 73 0 133 0 133 136 200 c190 279 189 277 189 399 0 85 -3 106 -23
143 -12 23 -20 42 -18 42 3 0 47 -23 98 -50z m-339 -4 c52 -22 79 -59 85 -114
2 -28 -1 -59 -8 -73 -7 -13 -83 -129 -169 -257 l-156 -233 0 -343 c0 -418 -7
-398 139 -425 94 -17 164 -80 191 -168 l6 -23 -181 0 c-197 0 -229 7 -283 58
-16 15 -37 44 -48 64 -18 35 -19 64 -19 478 l0 440 139 278 c76 152 147 285
158 294 41 37 94 46 146 24z m3402 -186 c267 -69 484 -261 566 -500 34 -99 38
-279 10 -386 -34 -124 -89 -215 -195 -319 -180 -177 -388 -255 -651 -242 -131
7 -211 26 -323 78 -298 138 -464 396 -449 694 15 291 208 536 510 650 156 58
367 69 532 25z m-1239 -728 c0 -99 5 -144 22 -205 48 -171 133 -308 269 -437
l84 -80 -463 0 -463 0 85 88 c85 89 155 194 200 302 38 92 120 251 167 325 43
66 92 135 96 135 1 0 2 -57 3 -128z"/>
<path d="M2602 2695 c-36 -16 -66 -71 -56 -102 20 -61 48 -83 105 -83 20 0 40
10 60 29 51 51 33 137 -33 160 -38 13 -35 13 -76 -4z"/>
</g>
</svg>
